<?xml version="1.0" standalone="no"?>
<!DOCTYPE svg PUBLIC "-//W3C//DTD SVG 20010904//EN"
 "http://www.w3.org/TR/2001/REC-SVG-20010904/DTD/svg10.dtd">
<svg version="1.0" xmlns="http://www.w3.org/2000/svg"
 width="32.000000pt" height="32.000000pt" viewBox="0 0 32.000000 32.000000"
 preserveAspectRatio="xMidYMid meet">

<g transform="translate(0.000000,32.000000) scale(0.100000,-0.100000)"
fill="#4C522C" stroke="none">
<path d="M207 293 c-4 -3 -20 -6 -37 -5 -22 0 -30 -4 -30 -16 0 -15 -2 -15
-11 -2 -8 11 -12 12 -16 2 -2 -6 -9 -10 -14 -6 -18 11 -31 -7 -17 -24 10 -14
10 -15 -2 -4 -20 17 -54 16 -47 -2 4 -9 -1 -17 -12 -21 -12 -3 -17 -16 -18
-40 -1 -19 3 -35 8 -35 5 0 19 -11 31 -25 20 -24 22 -24 49 -8 16 9 31 14 34
11 7 -7 -30 -84 -45 -93 -14 -9 -13 -25 3 -25 13 0 67 79 67 101 1 8 14 -2 30
-21 23 -26 38 -35 65 -36 30 -1 38 4 56 35 16 28 19 39 10 53 -6 10 -11 27
-11 38 0 11 -4 20 -9 20 -5 0 -12 12 -17 28 -4 15 -8 29 -10 32 -1 3 -5 15 -9
28 -7 21 -34 30 -48 15z"/>
</g>
</svg>
